<?xml version="1.0" encoding="UTF-8" standalone="no"?>
<!DOCTYPE svg PUBLIC "-//W3C//DTD SVG 1.1//EN"
 "http://www.w3.org/Graphics/SVG/1.1/DTD/svg11.dtd">
<!-- Generated by graphviz version 9.0.0 (20230911.1827)
 -->
<!-- Pages: 1 -->
<svg width="649pt" height="836pt"
 viewBox="0.00 0.00 649.38 836.00" xmlns="http://www.w3.org/2000/svg" xmlns:xlink="http://www.w3.org/1999/xlink">
<g id="graph0" class="graph" transform="scale(1 1) rotate(0) translate(4 832)">
<polygon fill="white" stroke="none" points="-4,4 -4,-832 645.38,-832 645.38,4 -4,4"/>
<!-- pzl -->
<g id="node1" class="node">
<title>pzl</title>
<ellipse fill="none" stroke="black" cx="273" cy="-810" rx="27" ry="18"/>
<text text-anchor="middle" x="273" y="-804.95" font-family="Times,serif" font-size="14.00">pzl</text>
</g>
<!-- rsh -->
<g id="node2" class="node">
<title>rsh</title>
<ellipse fill="none" stroke="black" cx="209" cy="-738" rx="27" ry="18"/>
<text text-anchor="middle" x="209" y="-732.95" font-family="Times,serif" font-size="14.00">rsh</text>
</g>
<!-- pzl&#45;&gt;rsh -->
<g id="edge1" class="edge">
<title>pzl&#45;&gt;rsh</title>
<path fill="none" stroke="black" d="M255.55,-795.83C246.07,-786.86 234.59,-774.7 225.3,-763.93"/>
<polygon fill="black" stroke="black" points="228.17,-761.91 219.07,-756.47 222.79,-766.39 228.17,-761.91"/>
</g>
<!-- lsr -->
<g id="node3" class="node">
<title>lsr</title>
<ellipse fill="none" stroke="black" cx="113" cy="-306" rx="27" ry="18"/>
<text text-anchor="middle" x="113" y="-300.95" font-family="Times,serif" font-size="14.00">lsr</text>
</g>
<!-- pzl&#45;&gt;lsr -->
<g id="edge2" class="edge">
<title>pzl&#45;&gt;lsr</title>
<path fill="none" stroke="black" d="M245.97,-807.44C176.8,-801.71 0,-776.03 0,-667 0,-667 0,-667 0,-449 0,-395.32 48.97,-348.45 82.61,-324.32"/>
<polygon fill="black" stroke="black" points="84.53,-327.24 90.81,-318.71 80.58,-321.46 84.53,-327.24"/>
</g>
<!-- hfx -->
<g id="node4" class="node">
<title>hfx</title>
<ellipse fill="none" stroke="black" cx="593" cy="-306" rx="27" ry="18"/>
<text text-anchor="middle" x="593" y="-300.95" font-family="Times,serif" font-size="14.00">hfx</text>
</g>
<!-- pzl&#45;&gt;hfx -->
<g id="edge3" class="edge">
<title>pzl&#45;&gt;hfx</title>
<path fill="none" stroke="black" d="M300.33,-808.01C371.48,-803.78 556,-781.71 556,-667 556,-667 556,-667 556,-449 556,-408.14 567.3,-361.9 577.84,-333.6"/>
<polygon fill="black" stroke="black" points="581.07,-334.97 581.56,-324.39 574.57,-332.35 581.07,-334.97"/>
</g>
<!-- nvd -->
<g id="node5" class="node">
<title>nvd</title>
<ellipse fill="none" stroke="black" cx="297" cy="-522" rx="27" ry="18"/>
<text text-anchor="middle" x="297" y="-516.95" font-family="Times,serif" font-size="14.00">nvd</text>
</g>
<!-- pzl&#45;&gt;nvd -->
<g id="edge4" class="edge">
<title>pzl&#45;&gt;nvd</title>
<path fill="none" stroke="black" d="M271.02,-791.97C270.85,-744.48 281.84,-610.23 290.39,-551.32"/>
<polygon fill="black" stroke="black" points="293.85,-551.86 291.94,-541.44 286.93,-550.78 293.85,-551.86"/>
</g>
<!-- rsh&#45;&gt;pzl -->
<g id="edge37" class="edge">
<title>rsh&#45;&gt;pzl</title>
<path fill="none" stroke="black" d="M226.15,-751.88C235.69,-760.88 247.31,-773.18 256.69,-784.06"/>
<polygon fill="black" stroke="black" points="253.89,-786.17 262.99,-791.6 259.27,-781.68 253.89,-786.17"/>
</g>
<!-- rsh&#45;&gt;lsr -->
<g id="edge38" class="edge">
<title>rsh&#45;&gt;lsr</title>
<path fill="none" stroke="black" d="M185.01,-729.01C141.71,-711.21 56,-664.34 56,-595 56,-595 56,-595 56,-449 56,-405.85 76.14,-359.02 92.77,-331.39"/>
<polygon fill="black" stroke="black" points="95.66,-333.36 98.11,-323.06 89.77,-329.59 95.66,-333.36"/>
</g>
<!-- frs -->
<g id="node12" class="node">
<title>frs</title>
<ellipse fill="none" stroke="black" cx="205" cy="-234" rx="27" ry="18"/>
<text text-anchor="middle" x="205" y="-228.95" font-family="Times,serif" font-size="14.00">frs</text>
</g>
<!-- rsh&#45;&gt;frs -->
<g id="edge36" class="edge">
<title>rsh&#45;&gt;frs</title>
<path fill="none" stroke="black" d="M197.58,-721.5C184.89,-695.67 168,-642 168,-595 168,-595 168,-595 168,-377 168,-336.14 179.3,-289.9 189.84,-261.6"/>
<polygon fill="black" stroke="black" points="193.07,-262.97 193.56,-252.39 186.57,-260.35 193.07,-262.97"/>
</g>
<!-- rzs -->
<g id="node15" class="node">
<title>rzs</title>
<ellipse fill="none" stroke="black" cx="241" cy="-666" rx="27" ry="18"/>
<text text-anchor="middle" x="241" y="-660.95" font-family="Times,serif" font-size="14.00">rzs</text>
</g>
<!-- rsh&#45;&gt;rzs -->
<g id="edge39" class="edge">
<title>rsh&#45;&gt;rzs</title>
<path fill="none" stroke="black" d="M210.99,-719.7C213.92,-711.43 218.32,-701.38 222.93,-692.28"/>
<polygon fill="black" stroke="black" points="225.98,-694 227.65,-683.53 219.82,-690.67 225.98,-694"/>
</g>
<!-- lsr&#45;&gt;pzl -->
<g id="edge24" class="edge">
<title>lsr&#45;&gt;pzl</title>
<path fill="none" stroke="black" d="M98.17,-321.41C71.14,-344.55 18,-393.08 18,-449 18,-667 18,-667 18,-667 18,-766.09 164.04,-796.33 235.18,-805.33"/>
<polygon fill="black" stroke="black" points="234.48,-808.77 244.82,-806.46 235.3,-801.82 234.48,-808.77"/>
</g>
<!-- lsr&#45;&gt;rsh -->
<g id="edge23" class="edge">
<title>lsr&#45;&gt;rsh</title>
<path fill="none" stroke="black" d="M109.05,-323.86C98.26,-349.85 74,-401.64 74,-449 74,-595 74,-595 74,-595 74,-655.11 138.4,-698.33 178.38,-720.37"/>
<polygon fill="black" stroke="black" points="176.64,-723.41 187.11,-725.05 179.95,-717.24 176.64,-723.41"/>
</g>
<!-- lhk -->
<g id="node10" class="node">
<title>lhk</title>
<ellipse fill="none" stroke="black" cx="297" cy="-378" rx="27" ry="18"/>
<text text-anchor="middle" x="297" y="-372.95" font-family="Times,serif" font-size="14.00">lhk</text>
</g>
<!-- lsr&#45;&gt;lhk -->
<g id="edge25" class="edge">
<title>lsr&#45;&gt;lhk</title>
<path fill="none" stroke="black" d="M137.1,-314.5C169.85,-325.94 228.08,-347.94 264.59,-362.55"/>
<polygon fill="black" stroke="black" points="263.19,-365.75 273.77,-366.25 265.81,-359.26 263.19,-365.75"/>
</g>
<!-- lsr&#45;&gt;frs -->
<g id="edge27" class="edge">
<title>lsr&#45;&gt;frs</title>
<path fill="none" stroke="black" d="M126.87,-290.15C139.88,-279.22 159.38,-264.3 175.73,-252.73"/>
<polygon fill="black" stroke="black" points="177.45,-255.8 183.68,-247.23 173.47,-250.05 177.45,-255.8"/>
</g>
<!-- lsr&#45;&gt;rzs -->
<g id="edge26" class="edge">
<title>lsr&#45;&gt;rzs</title>
<path fill="none" stroke="black" d="M120.2,-323.6C125.87,-350.09 130,-403.57 130,-449 130,-523 130,-523 130,-523 130,-577.2 181.63,-621.39 214.62,-645.39"/>
<polygon fill="black" stroke="black" points="212.36,-648.08 222.54,-651.02 216.42,-642.37 212.36,-648.08"/>
</g>
<!-- hfx&#45;&gt;pzl -->
<g id="edge51" class="edge">
<title>hfx&#45;&gt;pzl</title>
<path fill="none" stroke="black" d="M593.1,-324.27C588.15,-350.79 574,-403.27 574,-449 574,-667 574,-667 574,-667 574,-780.52 393.31,-803.31 311.83,-807.87"/>
<polygon fill="black" stroke="black" points="311.66,-804.37 301.84,-808.35 312,-811.36 311.66,-804.37"/>
</g>
<!-- rhn -->
<g id="node7" class="node">
<title>rhn</title>
<ellipse fill="none" stroke="black" cx="557" cy="-90" rx="27" ry="18"/>
<text text-anchor="middle" x="557" y="-84.95" font-family="Times,serif" font-size="14.00">rhn</text>
</g>
<!-- hfx&#45;&gt;rhn -->
<g id="edge49" class="edge">
<title>hfx&#45;&gt;rhn</title>
<path fill="none" stroke="black" d="M600.31,-288.24C607.1,-278.44 615.88,-265.4 620,-252 624.7,-236.71 624.13,-231.46 620,-216 610.04,-178.74 586.01,-141.07 570.4,-116.97"/>
<polygon fill="black" stroke="black" points="573.47,-115.29 565.11,-108.79 567.59,-119.09 573.47,-115.29"/>
</g>
<!-- xhk -->
<g id="node8" class="node">
<title>xhk</title>
<ellipse fill="none" stroke="black" cx="529" cy="-162" rx="27" ry="18"/>
<text text-anchor="middle" x="529" y="-156.95" font-family="Times,serif" font-size="14.00">xhk</text>
</g>
<!-- hfx&#45;&gt;xhk -->
<g id="edge48" class="edge">
<title>hfx&#45;&gt;xhk</title>
<path fill="none" stroke="black" d="M575.36,-292.15C565.79,-281.8 555.07,-266.62 548,-252 538.61,-232.6 531.42,-209.32 527.94,-191.43"/>
<polygon fill="black" stroke="black" points="531.43,-191.12 526.41,-181.79 524.52,-192.21 531.43,-191.12"/>
</g>
<!-- ntq -->
<g id="node9" class="node">
<title>ntq</title>
<ellipse fill="none" stroke="black" cx="593" cy="-234" rx="27" ry="18"/>
<text text-anchor="middle" x="593" y="-228.95" font-family="Times,serif" font-size="14.00">ntq</text>
</g>
<!-- hfx&#45;&gt;ntq -->
<g id="edge52" class="edge">
<title>hfx&#45;&gt;ntq</title>
<path fill="none" stroke="black" d="M587.12,-288.05C586.33,-280.57 586.08,-271.58 586.37,-263.14"/>
<polygon fill="black" stroke="black" points="589.85,-263.51 587.04,-253.3 582.87,-263.04 589.85,-263.51"/>
</g>
<!-- bvb -->
<g id="node14" class="node">
<title>bvb</title>
<ellipse fill="none" stroke="black" cx="473" cy="-378" rx="27" ry="18"/>
<text text-anchor="middle" x="473" y="-372.95" font-family="Times,serif" font-size="14.00">bvb</text>
</g>
<!-- hfx&#45;&gt;bvb -->
<g id="edge50" class="edge">
<title>hfx&#45;&gt;bvb</title>
<path fill="none" stroke="black" d="M575.83,-320.17C557.23,-332.01 527.54,-349.38 504.74,-361.8"/>
<polygon fill="black" stroke="black" points="503.31,-358.6 496.15,-366.4 506.61,-364.77 503.31,-358.6"/>
</g>
<!-- nvd&#45;&gt;pzl -->
<g id="edge20" class="edge">
<title>nvd&#45;&gt;pzl</title>
<path fill="none" stroke="black" d="M298.98,-540.31C299.11,-588.01 288.16,-721.76 279.62,-780.6"/>
<polygon fill="black" stroke="black" points="276.17,-780.05 278.08,-790.47 283.08,-781.13 276.17,-780.05"/>
</g>
<!-- jqt -->
<g id="node6" class="node">
<title>jqt</title>
<ellipse fill="none" stroke="black" cx="525" cy="-18" rx="27" ry="18"/>
<text text-anchor="middle" x="525" y="-12.95" font-family="Times,serif" font-size="14.00">jqt</text>
</g>
<!-- nvd&#45;&gt;jqt -->
<g id="edge18" class="edge">
<title>nvd&#45;&gt;jqt</title>
<path fill="none" stroke="black" d="M300.94,-503.77C314.48,-468.07 352,-383.01 352,-307 352,-307 352,-307 352,-161 352,-90.97 438.52,-47.76 489.32,-29.35"/>
<polygon fill="black" stroke="black" points="490.44,-32.67 498.75,-26.09 488.16,-26.05 490.44,-32.67"/>
</g>
<!-- nvd&#45;&gt;lhk -->
<g id="edge22" class="edge">
<title>nvd&#45;&gt;lhk</title>
<path fill="none" stroke="black" d="M292.42,-503.87C289.89,-479.99 289.57,-436.38 291.46,-407.54"/>
<polygon fill="black" stroke="black" points="294.94,-407.95 292.28,-397.7 287.97,-407.37 294.94,-407.95"/>
</g>
<!-- cmg -->
<g id="node11" class="node">
<title>cmg</title>
<ellipse fill="none" stroke="black" cx="417" cy="-450" rx="27.3" ry="18"/>
<text text-anchor="middle" x="417" y="-444.95" font-family="Times,serif" font-size="14.00">cmg</text>
</g>
<!-- nvd&#45;&gt;cmg -->
<g id="edge19" class="edge">
<title>nvd&#45;&gt;cmg</title>
<path fill="none" stroke="black" d="M314.16,-507.83C332.73,-496.02 362.36,-478.68 385.15,-466.26"/>
<polygon fill="black" stroke="black" points="386.58,-469.47 393.74,-461.66 383.27,-463.3 386.58,-469.47"/>
</g>
<!-- qnr -->
<g id="node13" class="node">
<title>qnr</title>
<ellipse fill="none" stroke="black" cx="241" cy="-594" rx="27" ry="18"/>
<text text-anchor="middle" x="241" y="-588.95" font-family="Times,serif" font-size="14.00">qnr</text>
</g>
<!-- nvd&#45;&gt;qnr -->
<g id="edge21" class="edge">
<title>nvd&#45;&gt;qnr</title>
<path fill="none" stroke="black" d="M289.52,-539.67C283,-549.08 273.65,-560.97 264.81,-571.13"/>
<polygon fill="black" stroke="black" points="262.37,-568.61 258.27,-578.38 267.56,-573.3 262.37,-568.61"/>
</g>
<!-- jqt&#45;&gt;nvd -->
<g id="edge7" class="edge">
<title>jqt&#45;&gt;nvd</title>
<path fill="none" stroke="black" d="M502.56,-28.46C459.39,-46.34 370,-89.82 370,-161 370,-307 370,-307 370,-307 370,-377.87 337.39,-456.61 315.45,-495.87"/>
<polygon fill="black" stroke="black" points="312.53,-493.93 310.48,-504.33 318.56,-497.48 312.53,-493.93"/>
</g>
<!-- jqt&#45;&gt;rhn -->
<g id="edge5" class="edge">
<title>jqt&#45;&gt;rhn</title>
<path fill="none" stroke="black" d="M537.63,-34.2C542.17,-42.05 546.98,-51.88 550.84,-61.04"/>
<polygon fill="black" stroke="black" points="547.56,-62.24 554.46,-70.29 554.08,-59.7 547.56,-62.24"/>
</g>
<!-- jqt&#45;&gt;xhk -->
<g id="edge6" class="edge">
<title>jqt&#45;&gt;xhk</title>
<path fill="none" stroke="black" d="M529.74,-36.08C530.22,-54.01 528.12,-83.01 530,-108 530.6,-116.01 531.71,-124.65 532.56,-132.57"/>
<polygon fill="black" stroke="black" points="529.06,-132.73 533.44,-142.38 536.04,-132.11 529.06,-132.73"/>
</g>
<!-- jqt&#45;&gt;ntq -->
<g id="edge8" class="edge">
<title>jqt&#45;&gt;ntq</title>
<path fill="none" stroke="black" d="M548.88,-26.69C567.55,-35.16 591.49,-50.48 602,-72 623.07,-115.14 615.87,-172.86 606.13,-206.18"/>
<polygon fill="black" stroke="black" points="602.88,-204.85 603.09,-215.45 609.53,-207.03 602.88,-204.85"/>
</g>
<!-- rhn&#45;&gt;hfx -->
<g id="edge61" class="edge">
<title>rhn&#45;&gt;hfx</title>
<path fill="none" stroke="black" d="M573.72,-104.54C594.11,-126.38 626.1,-171.48 638,-216 642.13,-231.46 642.7,-236.71 638,-252 634.42,-263.64 627.32,-275.02 619.65,-284.23"/>
<polygon fill="black" stroke="black" points="617.13,-281.81 612.94,-291.54 622.28,-286.54 617.13,-281.81"/>
</g>
<!-- rhn&#45;&gt;jqt -->
<g id="edge58" class="edge">
<title>rhn&#45;&gt;jqt</title>
<path fill="none" stroke="black" d="M544.38,-73.81C539.81,-65.92 534.97,-56.03 531.1,-46.83"/>
<polygon fill="black" stroke="black" points="534.37,-45.59 527.48,-37.54 527.85,-48.13 534.37,-45.59"/>
</g>
<!-- rhn&#45;&gt;xhk -->
<g id="edge59" class="edge">
<title>rhn&#45;&gt;xhk</title>
<path fill="none" stroke="black" d="M555.95,-108.46C553.54,-116.54 549.84,-126.3 545.86,-135.2"/>
<polygon fill="black" stroke="black" points="542.76,-133.57 541.59,-144.1 549.07,-136.6 542.76,-133.57"/>
</g>
<!-- rhn&#45;&gt;bvb -->
<g id="edge60" class="edge">
<title>rhn&#45;&gt;bvb</title>
<path fill="none" stroke="black" d="M540.19,-104.59C527.32,-113.77 510.77,-127.26 502,-144 467.24,-210.39 472.21,-302.17 474.31,-348.21"/>
<polygon fill="black" stroke="black" points="470.81,-348.31 474.72,-358.16 477.81,-348.02 470.81,-348.31"/>
</g>
<!-- xhk&#45;&gt;hfx -->
<g id="edge54" class="edge">
<title>xhk&#45;&gt;hfx</title>
<path fill="none" stroke="black" d="M539.03,-178.96C545.89,-197.2 554.22,-227.65 566,-252 570.36,-261.01 576.11,-270.24 581.33,-278.41"/>
<polygon fill="black" stroke="black" points="578.38,-280.29 586.71,-286.84 584.28,-276.53 578.38,-280.29"/>
</g>
<!-- xhk&#45;&gt;jqt -->
<g id="edge53" class="edge">
<title>xhk&#45;&gt;jqt</title>
<path fill="none" stroke="black" d="M518.35,-145.3C515.15,-134.79 512.95,-120.62 512,-108 510.46,-87.45 511.6,-64.18 514.33,-46.59"/>
<polygon fill="black" stroke="black" points="517.74,-47.39 516.17,-36.91 510.86,-46.08 517.74,-47.39"/>
</g>
<!-- xhk&#45;&gt;rhn -->
<g id="edge55" class="edge">
<title>xhk&#45;&gt;rhn</title>
<path fill="none" stroke="black" d="M530.01,-143.7C532.46,-135.43 536.28,-125.38 540.37,-116.28"/>
<polygon fill="black" stroke="black" points="543.39,-118.09 544.58,-107.57 537.08,-115.05 543.39,-118.09"/>
</g>
<!-- xhk&#45;&gt;ntq -->
<g id="edge57" class="edge">
<title>xhk&#45;&gt;ntq</title>
<path fill="none" stroke="black" d="M546.15,-175.88C555.69,-184.88 567.31,-197.18 576.69,-208.06"/>
<polygon fill="black" stroke="black" points="573.89,-210.17 582.99,-215.6 579.27,-205.68 573.89,-210.17"/>
</g>
<!-- xhk&#45;&gt;bvb -->
<g id="edge56" class="edge">
<title>xhk&#45;&gt;bvb</title>
<path fill="none" stroke="black" d="M528.35,-180.38C522.14,-217.55 499.52,-304.99 484.84,-349.68"/>
<polygon fill="black" stroke="black" points="481.53,-348.54 481.6,-359.13 488.15,-350.8 481.53,-348.54"/>
</g>
<!-- ntq&#45;&gt;hfx -->
<g id="edge33" class="edge">
<title>ntq&#45;&gt;hfx</title>
<path fill="none" stroke="black" d="M598.86,-251.79C599.66,-259.25 599.92,-268.24 599.64,-276.69"/>
<polygon fill="black" stroke="black" points="596.16,-276.33 598.98,-286.54 603.14,-276.8 596.16,-276.33"/>
</g>
<!-- ntq&#45;&gt;jqt -->
<g id="edge32" class="edge">
<title>ntq&#45;&gt;jqt</title>
<path fill="none" stroke="black" d="M592.33,-215.93C596.02,-185.29 607.31,-119.72 584,-72 577.11,-57.89 564.44,-46.44 552.51,-37.84"/>
<polygon fill="black" stroke="black" points="554.72,-35.11 544.47,-32.41 550.8,-40.91 554.72,-35.11"/>
</g>
<!-- ntq&#45;&gt;xhk -->
<g id="edge35" class="edge">
<title>ntq&#45;&gt;xhk</title>
<path fill="none" stroke="black" d="M575.55,-219.83C566.07,-210.86 554.59,-198.7 545.3,-187.93"/>
<polygon fill="black" stroke="black" points="548.17,-185.91 539.07,-180.47 542.79,-190.39 548.17,-185.91"/>
</g>
<!-- ntq&#45;&gt;bvb -->
<g id="edge34" class="edge">
<title>ntq&#45;&gt;bvb</title>
<path fill="none" stroke="black" d="M583.71,-251.31C564.94,-276.84 523.36,-326.27 496.69,-354.94"/>
<polygon fill="black" stroke="black" points="494.32,-352.36 489.98,-362.03 499.4,-357.18 494.32,-352.36"/>
</g>
<!-- lhk&#45;&gt;lsr -->
<g id="edge11" class="edge">
<title>lhk&#45;&gt;lsr</title>
<path fill="none" stroke="black" d="M272.94,-369.51C240.16,-358.07 181.82,-336.03 145.3,-321.41"/>
<polygon fill="black" stroke="black" points="146.71,-318.21 136.13,-317.7 144.09,-324.7 146.71,-318.21"/>
</g>
<!-- lhk&#45;&gt;nvd -->
<g id="edge10" class="edge">
<title>lhk&#45;&gt;nvd</title>
<path fill="none" stroke="black" d="M301.59,-396.19C304.11,-420.1 304.43,-463.72 302.53,-492.53"/>
<polygon fill="black" stroke="black" points="299.05,-492.11 301.71,-502.36 306.03,-492.69 299.05,-492.11"/>
</g>
<!-- lhk&#45;&gt;cmg -->
<g id="edge9" class="edge">
<title>lhk&#45;&gt;cmg</title>
<path fill="none" stroke="black" d="M318.83,-388.89C338.93,-399.46 368.51,-416.47 390.03,-429.71"/>
<polygon fill="black" stroke="black" points="387.96,-432.54 398.3,-434.87 391.67,-426.6 387.96,-432.54"/>
</g>
<!-- lhk&#45;&gt;frs -->
<g id="edge12" class="edge">
<title>lhk&#45;&gt;frs</title>
<path fill="none" stroke="black" d="M285.22,-361.38C275.88,-342.93 263.21,-311.75 247,-288 240.05,-277.82 231.1,-267.79 223.12,-259.24"/>
<polygon fill="black" stroke="black" points="225.72,-256.9 216.32,-252.02 220.63,-261.7 225.72,-256.9"/>
</g>
<!-- cmg&#45;&gt;nvd -->
<g id="edge14" class="edge">
<title>cmg&#45;&gt;nvd</title>
<path fill="none" stroke="black" d="M399.83,-464.17C381.23,-476.01 351.54,-493.38 328.74,-505.8"/>
<polygon fill="black" stroke="black" points="327.31,-502.6 320.15,-510.4 330.61,-508.77 327.31,-502.6"/>
</g>
<!-- cmg&#45;&gt;lhk -->
<g id="edge15" class="edge">
<title>cmg&#45;&gt;lhk</title>
<path fill="none" stroke="black" d="M394.91,-438.97C374.7,-428.33 345.05,-411.27 323.59,-398.06"/>
<polygon fill="black" stroke="black" points="325.7,-395.25 315.36,-392.92 321.98,-401.18 325.7,-395.25"/>
</g>
<!-- cmg&#45;&gt;qnr -->
<g id="edge13" class="edge">
<title>cmg&#45;&gt;qnr</title>
<path fill="none" stroke="black" d="M410.2,-467.82C397.11,-486.84 369.85,-518.01 342,-540 321.55,-556.15 295.63,-570.62 275.01,-580.35"/>
<polygon fill="black" stroke="black" points="273.81,-577.05 266.14,-584.36 276.69,-583.43 273.81,-577.05"/>
</g>
<!-- cmg&#45;&gt;bvb -->
<g id="edge16" class="edge">
<title>cmg&#45;&gt;bvb</title>
<path fill="none" stroke="black" d="M424.43,-432.41C430.91,-423.03 440.23,-411.18 449.06,-401.03"/>
<polygon fill="black" stroke="black" points="451.5,-403.55 455.59,-393.77 446.3,-398.86 451.5,-403.55"/>
</g>
<!-- cmg&#45;&gt;rzs -->
<g id="edge17" class="edge">
<title>cmg&#45;&gt;rzs</title>
<path fill="none" stroke="black" d="M417.42,-468.43C412.62,-487.17 399.65,-517.31 383,-540 350.71,-583.98 301.69,-625.35 270.31,-647.72"/>
<polygon fill="black" stroke="black" points="268.66,-644.61 262.42,-653.18 272.64,-650.37 268.66,-644.61"/>
</g>
<!-- frs&#45;&gt;rsh -->
<g id="edge28" class="edge">
<title>frs&#45;&gt;rsh</title>
<path fill="none" stroke="black" d="M205.1,-252.27C200.15,-278.79 186,-331.27 186,-377 186,-595 186,-595 186,-595 186,-635.24 198.38,-680.37 205.58,-708.73"/>
<polygon fill="black" stroke="black" points="202.15,-709.45 207.93,-718.32 208.95,-707.78 202.15,-709.45"/>
</g>
<!-- frs&#45;&gt;lsr -->
<g id="edge31" class="edge">
<title>frs&#45;&gt;lsr</title>
<path fill="none" stroke="black" d="M191.08,-249.88C178.03,-260.85 158.46,-275.82 142.09,-287.39"/>
<polygon fill="black" stroke="black" points="140.37,-284.32 134.14,-292.89 144.36,-290.08 140.37,-284.32"/>
</g>
<!-- frs&#45;&gt;lhk -->
<g id="edge30" class="edge">
<title>frs&#45;&gt;lhk</title>
<path fill="none" stroke="black" d="M225.37,-246.4C238.34,-256.5 254.13,-272.07 265,-288 277.9,-306.9 288.57,-330.52 294.48,-348.67"/>
<polygon fill="black" stroke="black" points="291.1,-349.61 297.23,-358.25 297.83,-347.67 291.1,-349.61"/>
</g>
<!-- frs&#45;&gt;qnr -->
<g id="edge29" class="edge">
<title>frs&#45;&gt;qnr</title>
<path fill="none" stroke="black" d="M215.87,-250.98C227.38,-277.06 242,-330.51 242,-377 242,-451 242,-451 242,-451 242,-490.54 245.13,-536.17 245.27,-564.8"/>
<polygon fill="black" stroke="black" points="241.78,-564.41 245.15,-574.45 248.78,-564.5 241.78,-564.41"/>
</g>
<!-- qnr&#45;&gt;nvd -->
<g id="edge41" class="edge">
<title>qnr&#45;&gt;nvd</title>
<path fill="none" stroke="black" d="M248.43,-576.41C254.91,-567.03 264.23,-555.18 273.06,-545.03"/>
<polygon fill="black" stroke="black" points="275.5,-547.55 279.59,-537.77 270.3,-542.86 275.5,-547.55"/>
</g>
<!-- qnr&#45;&gt;cmg -->
<g id="edge40" class="edge">
<title>qnr&#45;&gt;cmg</title>
<path fill="none" stroke="black" d="M259.43,-580.69C277.03,-570.96 303.31,-556.34 324,-540 349.59,-519.79 374.69,-491.82 392.63,-472.66"/>
<polygon fill="black" stroke="black" points="394.95,-475.3 399.3,-465.63 389.88,-470.48 394.95,-475.3"/>
</g>
<!-- qnr&#45;&gt;frs -->
<g id="edge43" class="edge">
<title>qnr&#45;&gt;frs</title>
<path fill="none" stroke="black" d="M233.8,-576.4C228.13,-549.91 224,-496.43 224,-451 224,-451 224,-451 224,-377 224,-336.98 213.16,-291.8 207.14,-263.37"/>
<polygon fill="black" stroke="black" points="210.61,-262.86 205.2,-253.76 203.75,-264.25 210.61,-262.86"/>
</g>
<!-- qnr&#45;&gt;rzs -->
<g id="edge42" class="edge">
<title>qnr&#45;&gt;rzs</title>
<path fill="none" stroke="black" d="M246.86,-611.79C247.66,-619.25 247.92,-628.24 247.64,-636.69"/>
<polygon fill="black" stroke="black" points="244.16,-636.33 246.98,-646.54 251.14,-636.8 244.16,-636.33"/>
</g>
<!-- bvb&#45;&gt;hfx -->
<g id="edge65" class="edge">
<title>bvb&#45;&gt;hfx</title>
<path fill="none" stroke="black" d="M490.16,-363.83C508.73,-352.02 538.36,-334.68 561.15,-322.26"/>
<polygon fill="black" stroke="black" points="562.58,-325.47 569.74,-317.66 559.27,-319.3 562.58,-325.47"/>
</g>
<!-- bvb&#45;&gt;rhn -->
<g id="edge63" class="edge">
<title>bvb&#45;&gt;rhn</title>
<path fill="none" stroke="black" d="M465.71,-360.27C455.54,-320.23 445.86,-216.83 484,-144 492.67,-127.44 508.97,-114.06 524.11,-104.89"/>
<polygon fill="black" stroke="black" points="525.46,-108.14 532.49,-100.21 522.05,-102.03 525.46,-108.14"/>
</g>
<!-- bvb&#45;&gt;xhk -->
<g id="edge64" class="edge">
<title>bvb&#45;&gt;xhk</title>
<path fill="none" stroke="black" d="M473.61,-359.85C479.77,-322.81 502.46,-235.06 517.17,-190.29"/>
<polygon fill="black" stroke="black" points="520.4,-191.67 520.33,-181.07 513.78,-189.4 520.4,-191.67"/>
</g>
<!-- bvb&#45;&gt;ntq -->
<g id="edge66" class="edge">
<title>bvb&#45;&gt;ntq</title>
<path fill="none" stroke="black" d="M482.27,-360.71C501,-335.23 542.51,-285.88 569.19,-257.18"/>
<polygon fill="black" stroke="black" points="571.58,-259.75 575.92,-250.08 566.5,-254.94 571.58,-259.75"/>
</g>
<!-- bvb&#45;&gt;cmg -->
<g id="edge62" class="edge">
<title>bvb&#45;&gt;cmg</title>
<path fill="none" stroke="black" d="M465.45,-395.76C459,-405.08 449.79,-416.79 441.05,-426.85"/>
<polygon fill="black" stroke="black" points="438.66,-424.27 434.58,-434.04 443.87,-428.95 438.66,-424.27"/>
</g>
<!-- rzs&#45;&gt;rsh -->
<g id="edge47" class="edge">
<title>rzs&#45;&gt;rsh</title>
<path fill="none" stroke="black" d="M239.07,-684.13C236.12,-692.5 231.64,-702.74 226.94,-711.97"/>
<polygon fill="black" stroke="black" points="224.02,-710.02 222.34,-720.48 230.18,-713.35 224.02,-710.02"/>
</g>
<!-- rzs&#45;&gt;lsr -->
<g id="edge46" class="edge">
<title>rzs&#45;&gt;lsr</title>
<path fill="none" stroke="black" d="M218.78,-655.38C181.63,-635.39 112,-585.94 112,-523 112,-523 112,-523 112,-449 112,-409.46 108.87,-363.83 108.73,-335.2"/>
<polygon fill="black" stroke="black" points="112.22,-335.59 108.85,-325.55 105.22,-335.5 112.22,-335.59"/>
</g>
<!-- rzs&#45;&gt;cmg -->
<g id="edge45" class="edge">
<title>rzs&#45;&gt;cmg</title>
<path fill="none" stroke="black" d="M254.83,-650.29C279.78,-628.62 331.44,-585.72 365,-540 379.43,-520.34 391.09,-495.08 400.15,-476.5"/>
<polygon fill="black" stroke="black" points="403.17,-478.29 404.51,-467.78 396.91,-475.16 403.17,-478.29"/>
</g>
<!-- rzs&#45;&gt;qnr -->
<g id="edge44" class="edge">
<title>rzs&#45;&gt;qnr</title>
<path fill="none" stroke="black" d="M235.12,-648.05C234.33,-640.57 234.08,-631.58 234.37,-623.14"/>
<polygon fill="black" stroke="black" points="237.85,-623.51 235.04,-613.3 230.87,-623.04 237.85,-623.51"/>
</g>
</g>
</svg>
