<?xml version="1.0" encoding="UTF-8" standalone="no"?>
<!DOCTYPE svg PUBLIC "-//W3C//DTD SVG 1.1//EN"
 "http://www.w3.org/Graphics/SVG/1.1/DTD/svg11.dtd">
<!-- Generated by graphviz version 9.0.0 (20230911.1827)
 -->
<!-- Pages: 1 -->
<svg width="1992pt" height="1052pt"
 viewBox="0.00 0.00 1992.37 1052.00" xmlns="http://www.w3.org/2000/svg" xmlns:xlink="http://www.w3.org/1999/xlink">
<g id="graph0" class="graph" transform="scale(1 1) rotate(0) translate(4 1048)">
<polygon fill="white" stroke="none" points="-4,4 -4,-1048 1988.37,-1048 1988.37,4 -4,4"/>
<!-- nk -->
<g id="node1" class="node">
<title>nk</title>
<ellipse fill="none" stroke="yellow" cx="150" cy="-1026" rx="27" ry="18"/>
<text text-anchor="middle" x="150" y="-1020.95" font-family="Times,serif" font-size="14.00">nk</text>
</g>
<!-- dr -->
<g id="node2" class="node">
<title>dr</title>
<ellipse fill="none" stroke="blue" cx="277" cy="-954" rx="27" ry="18"/>
<text text-anchor="middle" x="277" y="-948.95" font-family="Times,serif" font-size="14.00">dr</text>
</g>
<!-- nk&#45;&gt;dr -->
<g id="edge1" class="edge">
<title>nk&#45;&gt;dr</title>
<path fill="none" stroke="black" d="M170.4,-1013.75C191.05,-1002.37 223.2,-984.65 246.8,-971.65"/>
<polygon fill="black" stroke="black" points="248.25,-974.84 255.32,-966.95 244.87,-968.71 248.25,-974.84"/>
</g>
<!-- jz -->
<g id="node27" class="node">
<title>jz</title>
<ellipse fill="none" stroke="yellow" cx="207" cy="-738" rx="27" ry="18"/>
<text text-anchor="middle" x="207" y="-732.95" font-family="Times,serif" font-size="14.00">jz</text>
</g>
<!-- dr&#45;&gt;jz -->
<g id="edge58" class="edge">
<title>dr&#45;&gt;jz</title>
<path fill="none" stroke="black" d="M265.33,-937.47C249.09,-914.82 220.38,-870.73 209,-828 203.76,-808.34 203.38,-785.37 204.25,-767.69"/>
<polygon fill="black" stroke="black" points="207.73,-768.12 204.9,-757.91 200.74,-767.66 207.73,-768.12"/>
</g>
<!-- ct -->
<g id="node28" class="node">
<title>ct</title>
<ellipse fill="none" stroke="yellow" cx="188" cy="-666" rx="27" ry="18"/>
<text text-anchor="middle" x="188" y="-660.95" font-family="Times,serif" font-size="14.00">ct</text>
</g>
<!-- dr&#45;&gt;ct -->
<g id="edge62" class="edge">
<title>dr&#45;&gt;ct</title>
<path fill="none" stroke="black" d="M258.67,-940.58C245.66,-930.9 228.67,-916.38 218,-900 181.26,-843.58 181.58,-822.49 171,-756 168.49,-740.2 168.53,-735.81 171,-720 172.32,-711.56 174.75,-702.64 177.38,-694.56"/>
<polygon fill="black" stroke="black" points="180.62,-695.88 180.61,-685.29 174.01,-693.58 180.62,-695.88"/>
</g>
<!-- ks -->
<g id="node37" class="node">
<title>ks</title>
<ellipse fill="none" stroke="yellow" cx="188" cy="-594" rx="27" ry="18"/>
<text text-anchor="middle" x="188" y="-588.95" font-family="Times,serif" font-size="14.00">ks</text>
</g>
<!-- dr&#45;&gt;ks -->
<g id="edge60" class="edge">
<title>dr&#45;&gt;ks</title>
<path fill="none" stroke="black" d="M253.3,-944.99C208.09,-928.04 114,-884 114,-811 114,-811 114,-811 114,-737 114,-691 144.92,-645.13 166.79,-618.45"/>
<polygon fill="black" stroke="black" points="169.31,-620.89 173.1,-611 163.97,-616.36 169.31,-620.89"/>
</g>
<!-- cn -->
<g id="node47" class="node">
<title>cn</title>
<ellipse fill="none" stroke="yellow" cx="431" cy="-882" rx="27" ry="18"/>
<text text-anchor="middle" x="431" y="-876.95" font-family="Times,serif" font-size="14.00">cn</text>
</g>
<!-- dr&#45;&gt;cn -->
<g id="edge57" class="edge">
<title>dr&#45;&gt;cn</title>
<path fill="none" stroke="black" d="M296.94,-941.6C322.48,-929.05 366.66,-908.94 397.38,-895.84"/>
<polygon fill="black" stroke="black" points="398.38,-899.22 406.24,-892.12 395.66,-892.77 398.38,-899.22"/>
</g>
<!-- tq -->
<g id="node49" class="node">
<title>tq</title>
<ellipse fill="none" stroke="yellow" cx="245" cy="-450" rx="27" ry="18"/>
<text text-anchor="middle" x="245" y="-444.95" font-family="Times,serif" font-size="14.00">tq</text>
</g>
<!-- dr&#45;&gt;tq -->
<g id="edge59" class="edge">
<title>dr&#45;&gt;tq</title>
<path fill="none" stroke="black" d="M288.76,-937.34C306.49,-912.13 338,-860.37 338,-811 338,-811 338,-811 338,-593 338,-543.27 297.6,-497.41 270.05,-471.92"/>
<polygon fill="black" stroke="black" points="272.54,-469.45 262.75,-465.39 267.87,-474.66 272.54,-469.45"/>
</g>
<!-- mr -->
<g id="node53" class="node">
<title>mr</title>
<ellipse fill="none" stroke="blue" cx="992" cy="-810" rx="27" ry="18"/>
<text text-anchor="middle" x="992" y="-804.95" font-family="Times,serif" font-size="14.00">mr</text>
</g>
<!-- dr&#45;&gt;mr -->
<g id="edge61" class="edge">
<title>dr&#45;&gt;mr</title>
<path fill="none" stroke="black" d="M304.42,-953.47C383.41,-954.14 617.7,-951.34 803,-900 862.49,-883.52 926.42,-849.61 962.59,-828.74"/>
<polygon fill="black" stroke="black" points="964.28,-831.8 971.15,-823.73 960.75,-825.76 964.28,-831.8"/>
</g>
<!-- qv -->
<g id="node3" class="node">
<title>qv</title>
<ellipse fill="none" stroke="yellow" cx="1327" cy="-450" rx="27" ry="18"/>
<text text-anchor="middle" x="1327" y="-444.95" font-family="Times,serif" font-size="14.00">qv</text>
</g>
<!-- cx -->
<g id="node4" class="node">
<title>cx</title>
<ellipse fill="none" stroke="yellow" cx="1365" cy="-378" rx="27" ry="18"/>
<text text-anchor="middle" x="1365" y="-372.95" font-family="Times,serif" font-size="14.00">cx</text>
</g>
<!-- qv&#45;&gt;cx -->
<g id="edge2" class="edge">
<title>qv&#45;&gt;cx</title>
<path fill="none" stroke="black" d="M1335.81,-432.76C1340.27,-424.55 1345.8,-414.37 1350.84,-405.09"/>
<polygon fill="black" stroke="black" points="1353.82,-406.94 1355.51,-396.48 1347.67,-403.6 1353.82,-406.94"/>
</g>
<!-- sk -->
<g id="node11" class="node">
<title>sk</title>
<ellipse fill="none" stroke="blue" cx="1334" cy="-666" rx="27" ry="18"/>
<text text-anchor="middle" x="1334" y="-660.95" font-family="Times,serif" font-size="14.00">sk</text>
</g>
<!-- cx&#45;&gt;sk -->
<g id="edge87" class="edge">
<title>cx&#45;&gt;sk</title>
<path fill="none" stroke="black" d="M1365.13,-396.42C1365.15,-414.38 1364.83,-443.18 1363,-468 1358.27,-532.32 1355.56,-548.37 1345,-612 1343.66,-620.1 1341.95,-628.84 1340.28,-636.84"/>
<polygon fill="black" stroke="black" points="1336.91,-635.89 1338.23,-646.4 1343.75,-637.35 1336.91,-635.89"/>
</g>
<!-- qh -->
<g id="node57" class="node">
<title>qh</title>
<ellipse fill="none" stroke="yellow" cx="1384" cy="-306" rx="27" ry="18"/>
<text text-anchor="middle" x="1384" y="-300.95" font-family="Times,serif" font-size="14.00">qh</text>
</g>
<!-- cx&#45;&gt;qh -->
<g id="edge88" class="edge">
<title>cx&#45;&gt;qh</title>
<path fill="none" stroke="black" d="M1369.6,-360.05C1371.65,-352.49 1374.13,-343.37 1376.44,-334.85"/>
<polygon fill="black" stroke="black" points="1379.8,-335.82 1379.05,-325.25 1373.05,-333.98 1379.8,-335.82"/>
</g>
<!-- bc -->
<g id="node5" class="node">
<title>bc</title>
<ellipse fill="none" stroke="yellow" cx="864" cy="-162" rx="27" ry="18"/>
<text text-anchor="middle" x="864" y="-156.95" font-family="Times,serif" font-size="14.00">bc</text>
</g>
<!-- sv -->
<g id="node6" class="node">
<title>sv</title>
<ellipse fill="none" stroke="blue" cx="767" cy="-810" rx="27" ry="18"/>
<text text-anchor="middle" x="767" y="-804.95" font-family="Times,serif" font-size="14.00">sv</text>
</g>
<!-- bc&#45;&gt;sv -->
<g id="edge3" class="edge">
<title>bc&#45;&gt;sv</title>
<path fill="none" stroke="black" d="M871.11,-179.7C881.6,-205.89 900,-258.46 900,-305 900,-667 900,-667 900,-667 900,-726.22 837.61,-770.93 798.3,-793.23"/>
<polygon fill="black" stroke="black" points="796.79,-790.06 789.7,-797.94 800.15,-796.2 796.79,-790.06"/>
</g>
<!-- tp -->
<g id="node7" class="node">
<title>tp</title>
<ellipse fill="none" stroke="yellow" cx="864" cy="-90" rx="27" ry="18"/>
<text text-anchor="middle" x="864" y="-84.95" font-family="Times,serif" font-size="14.00">tp</text>
</g>
<!-- bc&#45;&gt;tp -->
<g id="edge4" class="edge">
<title>bc&#45;&gt;tp</title>
<path fill="none" stroke="black" d="M864,-143.7C864,-136.41 864,-127.73 864,-119.54"/>
<polygon fill="black" stroke="black" points="867.5,-119.62 864,-109.62 860.5,-119.62 867.5,-119.62"/>
</g>
<!-- mx -->
<g id="node22" class="node">
<title>mx</title>
<ellipse fill="none" stroke="yellow" cx="693" cy="-522" rx="27" ry="18"/>
<text text-anchor="middle" x="693" y="-516.95" font-family="Times,serif" font-size="14.00">mx</text>
</g>
<!-- sv&#45;&gt;mx -->
<g id="edge40" class="edge">
<title>sv&#45;&gt;mx</title>
<path fill="none" stroke="black" d="M755.2,-793.6C747.99,-783.45 739.19,-769.56 734,-756 707.09,-685.7 697.7,-596.64 694.53,-551.71"/>
<polygon fill="black" stroke="black" points="698.03,-551.53 693.89,-541.77 691.04,-551.98 698.03,-551.53"/>
</g>
<!-- dz -->
<g id="node39" class="node">
<title>dz</title>
<ellipse fill="none" stroke="yellow" cx="617" cy="-666" rx="27" ry="18"/>
<text text-anchor="middle" x="617" y="-660.95" font-family="Times,serif" font-size="14.00">dz</text>
</g>
<!-- sv&#45;&gt;dz -->
<g id="edge39" class="edge">
<title>sv&#45;&gt;dz</title>
<path fill="none" stroke="black" d="M742.45,-802.38C718.25,-794.74 681.56,-780.05 658,-756 641.36,-739.01 630.67,-714.04 624.39,-694.87"/>
<polygon fill="black" stroke="black" points="627.81,-694.08 621.55,-685.53 621.11,-696.11 627.81,-694.08"/>
</g>
<!-- xk -->
<g id="node43" class="node">
<title>xk</title>
<ellipse fill="none" stroke="yellow" cx="767" cy="-882" rx="27" ry="18"/>
<text text-anchor="middle" x="767" y="-876.95" font-family="Times,serif" font-size="14.00">xk</text>
</g>
<!-- sv&#45;&gt;xk -->
<g id="edge36" class="edge">
<title>sv&#45;&gt;xk</title>
<path fill="none" stroke="black" d="M772.86,-827.79C773.66,-835.25 773.92,-844.24 773.64,-852.69"/>
<polygon fill="black" stroke="black" points="770.16,-852.33 772.98,-862.54 777.14,-852.8 770.16,-852.33"/>
</g>
<!-- rz -->
<g id="node44" class="node">
<title>rz</title>
<ellipse fill="none" stroke="blue" cx="993" cy="-738" rx="27" ry="18"/>
<text text-anchor="middle" x="993" y="-732.95" font-family="Times,serif" font-size="14.00">rz</text>
</g>
<!-- sv&#45;&gt;rz -->
<g id="edge37" class="edge">
<title>sv&#45;&gt;rz</title>
<path fill="none" stroke="black" d="M792.12,-802.78C827.97,-793.67 895.7,-775.67 952,-756 954.74,-755.04 957.56,-754 960.37,-752.92"/>
<polygon fill="black" stroke="black" points="961.66,-756.17 969.64,-749.21 959.06,-749.67 961.66,-756.17"/>
</g>
<!-- zv -->
<g id="node45" class="node">
<title>zv</title>
<ellipse fill="none" stroke="yellow" cx="579" cy="-738" rx="27" ry="18"/>
<text text-anchor="middle" x="579" y="-732.95" font-family="Times,serif" font-size="14.00">zv</text>
</g>
<!-- sv&#45;&gt;zv -->
<g id="edge38" class="edge">
<title>sv&#45;&gt;zv</title>
<path fill="none" stroke="black" d="M743.19,-800.8C714.02,-790.67 663.13,-772.71 620,-756 617.36,-754.98 614.63,-753.9 611.9,-752.8"/>
<polygon fill="black" stroke="black" points="613.46,-749.66 602.88,-749.12 610.82,-756.14 613.46,-749.66"/>
</g>
<!-- tp&#45;&gt;sv -->
<g id="edge21" class="edge">
<title>tp&#45;&gt;sv</title>
<path fill="none" stroke="black" d="M836.75,-90.12C756.07,-89.04 524,-97.71 524,-233 524,-667 524,-667 524,-667 524,-707.45 514.72,-727.09 543,-756 568.57,-782.14 672.03,-797.99 728.97,-804.9"/>
<polygon fill="black" stroke="black" points="728.52,-808.38 738.86,-806.07 729.34,-801.42 728.52,-808.38"/>
</g>
<!-- lm -->
<g id="node26" class="node">
<title>lm</title>
<ellipse fill="none" stroke="yellow" cx="901" cy="-18" rx="27" ry="18"/>
<text text-anchor="middle" x="901" y="-12.95" font-family="Times,serif" font-size="14.00">lm</text>
</g>
<!-- tp&#45;&gt;lm -->
<g id="edge22" class="edge">
<title>tp&#45;&gt;lm</title>
<path fill="none" stroke="black" d="M872.58,-72.76C876.92,-64.55 882.3,-54.37 887.21,-45.09"/>
<polygon fill="black" stroke="black" points="890.18,-46.96 891.76,-36.49 883.99,-43.69 890.18,-46.96"/>
</g>
<!-- kf -->
<g id="node8" class="node">
<title>kf</title>
<ellipse fill="none" stroke="yellow" cx="1141" cy="-594" rx="27" ry="18"/>
<text text-anchor="middle" x="1141" y="-588.95" font-family="Times,serif" font-size="14.00">kf</text>
</g>
<!-- rd -->
<g id="node9" class="node">
<title>rd</title>
<ellipse fill="none" stroke="yellow" cx="1289" cy="-522" rx="27" ry="18"/>
<text text-anchor="middle" x="1289" y="-516.95" font-family="Times,serif" font-size="14.00">rd</text>
</g>
<!-- kf&#45;&gt;rd -->
<g id="edge5" class="edge">
<title>kf&#45;&gt;rd</title>
<path fill="none" stroke="black" d="M1162.52,-582.82C1187.4,-571.05 1228.59,-551.57 1257.18,-538.05"/>
<polygon fill="black" stroke="black" points="1258.54,-541.28 1266.09,-533.84 1255.55,-534.95 1258.54,-541.28"/>
</g>
<!-- rd&#45;&gt;qv -->
<g id="edge43" class="edge">
<title>rd&#45;&gt;qv</title>
<path fill="none" stroke="black" d="M1297.81,-504.76C1302.27,-496.55 1307.8,-486.37 1312.84,-477.09"/>
<polygon fill="black" stroke="black" points="1315.82,-478.94 1317.51,-468.48 1309.67,-475.6 1315.82,-478.94"/>
</g>
<!-- bv -->
<g id="node10" class="node">
<title>bv</title>
<ellipse fill="none" stroke="yellow" cx="1232" cy="-738" rx="27" ry="18"/>
<text text-anchor="middle" x="1232" y="-732.95" font-family="Times,serif" font-size="14.00">bv</text>
</g>
<!-- bv&#45;&gt;kf -->
<g id="edge7" class="edge">
<title>bv&#45;&gt;kf</title>
<path fill="none" stroke="black" d="M1221.74,-720.99C1206.02,-696.46 1175.85,-649.38 1157.17,-620.23"/>
<polygon fill="black" stroke="black" points="1160.24,-618.54 1151.9,-612.01 1154.35,-622.32 1160.24,-618.54"/>
</g>
<!-- bv&#45;&gt;sk -->
<g id="edge6" class="edge">
<title>bv&#45;&gt;sk</title>
<path fill="none" stroke="black" d="M1250.24,-724.49C1265.8,-713.8 1288.44,-698.27 1306.25,-686.04"/>
<polygon fill="black" stroke="black" points="1308.07,-689.04 1314.33,-680.5 1304.1,-683.27 1308.07,-689.04"/>
</g>
<!-- sk&#45;&gt;qv -->
<g id="edge77" class="edge">
<title>sk&#45;&gt;qv</title>
<path fill="none" stroke="black" d="M1333.44,-647.85C1332.24,-611.14 1329.41,-524.66 1327.93,-479.53"/>
<polygon fill="black" stroke="black" points="1331.44,-479.63 1327.61,-469.75 1324.44,-479.85 1331.44,-479.63"/>
</g>
<!-- sk&#45;&gt;kf -->
<g id="edge78" class="edge">
<title>sk&#45;&gt;kf</title>
<path fill="none" stroke="black" d="M1309.48,-657.69C1278.31,-648.17 1223.02,-630.56 1177,-612 1175.48,-611.39 1173.93,-610.74 1172.37,-610.07"/>
<polygon fill="black" stroke="black" points="1174.08,-607 1163.52,-606.1 1171.21,-613.39 1174.08,-607"/>
</g>
<!-- sk&#45;&gt;rd -->
<g id="edge79" class="edge">
<title>sk&#45;&gt;rd</title>
<path fill="none" stroke="black" d="M1328.57,-647.87C1320.93,-623.75 1306.91,-579.52 1297.78,-550.69"/>
<polygon fill="black" stroke="black" points="1301.12,-549.67 1294.76,-541.19 1294.45,-551.78 1301.12,-549.67"/>
</g>
<!-- gf -->
<g id="node48" class="node">
<title>gf</title>
<ellipse fill="none" stroke="yellow" cx="1302" cy="-882" rx="27" ry="18"/>
<text text-anchor="middle" x="1302" y="-876.95" font-family="Times,serif" font-size="14.00">gf</text>
</g>
<!-- sk&#45;&gt;gf -->
<g id="edge82" class="edge">
<title>sk&#45;&gt;gf</title>
<path fill="none" stroke="black" d="M1335.3,-684.31C1333.28,-721.32 1320.53,-808.43 1310.86,-853.27"/>
<polygon fill="black" stroke="black" points="1307.52,-852.2 1308.69,-862.73 1314.34,-853.77 1307.52,-852.2"/>
</g>
<!-- sk&#45;&gt;qh -->
<g id="edge80" class="edge">
<title>sk&#45;&gt;qh</title>
<path fill="none" stroke="black" d="M1349.77,-650.98C1374.6,-627.28 1420,-576.61 1420,-523 1420,-523 1420,-523 1420,-449 1420,-408.09 1405.79,-362.54 1395.22,-334.32"/>
<polygon fill="black" stroke="black" points="1398.53,-333.17 1391.66,-325.11 1392.01,-335.7 1398.53,-333.17"/>
</g>
<!-- jg -->
<g id="node58" class="node">
<title>jg</title>
<ellipse fill="none" stroke="blue" cx="1213" cy="-594" rx="27" ry="18"/>
<text text-anchor="middle" x="1213" y="-588.95" font-family="Times,serif" font-size="14.00">jg</text>
</g>
<!-- sk&#45;&gt;jg -->
<g id="edge81" class="edge">
<title>sk&#45;&gt;jg</title>
<path fill="none" stroke="black" d="M1314.02,-653.44C1294.67,-642.24 1265.07,-625.12 1242.91,-612.3"/>
<polygon fill="black" stroke="black" points="1244.73,-609.31 1234.32,-607.33 1241.22,-615.37 1244.73,-609.31"/>
</g>
<!-- br -->
<g id="node12" class="node">
<title>br</title>
<ellipse fill="none" stroke="yellow" cx="1441" cy="-162" rx="27" ry="18"/>
<text text-anchor="middle" x="1441" y="-156.95" font-family="Times,serif" font-size="14.00">br</text>
</g>
<!-- br&#45;&gt;sk -->
<g id="edge8" class="edge">
<title>br&#45;&gt;sk</title>
<path fill="none" stroke="black" d="M1444.36,-179.97C1449.31,-206.52 1458,-259.56 1458,-305 1458,-523 1458,-523 1458,-523 1458,-579.84 1400.93,-624.91 1364.22,-648.02"/>
<polygon fill="black" stroke="black" points="1362.5,-644.98 1355.77,-653.17 1366.13,-650.96 1362.5,-644.98"/>
</g>
<!-- hc -->
<g id="node13" class="node">
<title>hc</title>
<ellipse fill="none" stroke="yellow" cx="1479" cy="-90" rx="27" ry="18"/>
<text text-anchor="middle" x="1479" y="-84.95" font-family="Times,serif" font-size="14.00">hc</text>
</g>
<!-- br&#45;&gt;hc -->
<g id="edge9" class="edge">
<title>br&#45;&gt;hc</title>
<path fill="none" stroke="black" d="M1449.81,-144.76C1454.27,-136.55 1459.8,-126.37 1464.84,-117.09"/>
<polygon fill="black" stroke="black" points="1467.82,-118.94 1469.51,-108.48 1461.67,-115.6 1467.82,-118.94"/>
</g>
<!-- hc&#45;&gt;sk -->
<g id="edge41" class="edge">
<title>hc&#45;&gt;sk</title>
<path fill="none" stroke="black" d="M1482.36,-107.97C1487.31,-134.52 1496,-187.56 1496,-233 1496,-523 1496,-523 1496,-523 1496,-590.49 1415.51,-633.39 1368,-652.83"/>
<polygon fill="black" stroke="black" points="1366.98,-649.47 1358.96,-656.39 1369.55,-655.98 1366.98,-649.47"/>
</g>
<!-- nf -->
<g id="node36" class="node">
<title>nf</title>
<ellipse fill="none" stroke="yellow" cx="1507" cy="-18" rx="27" ry="18"/>
<text text-anchor="middle" x="1507" y="-12.95" font-family="Times,serif" font-size="14.00">nf</text>
</g>
<!-- hc&#45;&gt;nf -->
<g id="edge42" class="edge">
<title>hc&#45;&gt;nf</title>
<path fill="none" stroke="black" d="M1485.64,-72.41C1488.77,-64.57 1492.6,-54.99 1496.15,-46.13"/>
<polygon fill="black" stroke="black" points="1499.39,-47.46 1499.85,-36.88 1492.89,-44.86 1499.39,-47.46"/>
</g>
<!-- rj -->
<g id="node14" class="node">
<title>rj</title>
<ellipse fill="none" stroke="yellow" cx="1724" cy="-882" rx="27" ry="18"/>
<text text-anchor="middle" x="1724" y="-876.95" font-family="Times,serif" font-size="14.00">rj</text>
</g>
<!-- lx -->
<g id="node15" class="node">
<title>lx</title>
<ellipse fill="none" stroke="yellow" cx="1788" cy="-810" rx="27" ry="18"/>
<text text-anchor="middle" x="1788" y="-804.95" font-family="Times,serif" font-size="14.00">lx</text>
</g>
<!-- rj&#45;&gt;lx -->
<g id="edge10" class="edge">
<title>rj&#45;&gt;lx</title>
<path fill="none" stroke="black" d="M1737.57,-866.15C1746.06,-856.87 1757.17,-844.73 1766.8,-834.19"/>
<polygon fill="black" stroke="black" points="1769.26,-836.68 1773.43,-826.94 1764.09,-831.96 1769.26,-836.68"/>
</g>
<!-- qz -->
<g id="node16" class="node">
<title>qz</title>
<ellipse fill="none" stroke="blue" cx="1724" cy="-738" rx="27" ry="18"/>
<text text-anchor="middle" x="1724" y="-732.95" font-family="Times,serif" font-size="14.00">qz</text>
</g>
<!-- rj&#45;&gt;qz -->
<g id="edge11" class="edge">
<title>rj&#45;&gt;qz</title>
<path fill="none" stroke="black" d="M1719.42,-863.87C1716.89,-839.99 1716.57,-796.38 1718.46,-767.54"/>
<polygon fill="black" stroke="black" points="1721.94,-767.95 1719.28,-757.7 1714.97,-767.37 1721.94,-767.95"/>
</g>
<!-- lx&#45;&gt;qz -->
<g id="edge67" class="edge">
<title>lx&#45;&gt;qz</title>
<path fill="none" stroke="black" d="M1774.43,-794.15C1765.94,-784.87 1754.83,-772.73 1745.2,-762.19"/>
<polygon fill="black" stroke="black" points="1747.91,-759.96 1738.57,-754.94 1742.74,-764.68 1747.91,-759.96"/>
</g>
<!-- qm -->
<g id="node51" class="node">
<title>qm</title>
<ellipse fill="none" stroke="yellow" cx="1927" cy="-666" rx="27" ry="18"/>
<text text-anchor="middle" x="1927" y="-660.95" font-family="Times,serif" font-size="14.00">qm</text>
</g>
<!-- lx&#45;&gt;qm -->
<g id="edge66" class="edge">
<title>lx&#45;&gt;qm</title>
<path fill="none" stroke="black" d="M1802.35,-794.34C1826.72,-769.44 1876.34,-718.76 1905.08,-689.4"/>
<polygon fill="black" stroke="black" points="1907.38,-692.05 1911.87,-682.45 1902.38,-687.15 1907.38,-692.05"/>
</g>
<!-- qz&#45;&gt;rj -->
<g id="edge53" class="edge">
<title>qz&#45;&gt;rj</title>
<path fill="none" stroke="black" d="M1728.59,-756.19C1731.11,-780.1 1731.43,-823.72 1729.53,-852.53"/>
<polygon fill="black" stroke="black" points="1726.05,-852.11 1728.71,-862.36 1733.03,-852.69 1726.05,-852.11"/>
</g>
<!-- vk -->
<g id="node24" class="node">
<title>vk</title>
<ellipse fill="none" stroke="yellow" cx="1779" cy="-234" rx="27" ry="18"/>
<text text-anchor="middle" x="1779" y="-228.95" font-family="Times,serif" font-size="14.00">vk</text>
</g>
<!-- qz&#45;&gt;vk -->
<g id="edge51" class="edge">
<title>qz&#45;&gt;vk</title>
<path fill="none" stroke="black" d="M1746.8,-727.78C1788.32,-709.3 1872,-663.55 1872,-595 1872,-595 1872,-595 1872,-377 1872,-327.27 1831.6,-281.41 1804.05,-255.92"/>
<polygon fill="black" stroke="black" points="1806.54,-253.45 1796.75,-249.39 1801.87,-258.66 1806.54,-253.45"/>
</g>
<!-- kv -->
<g id="node29" class="node">
<title>kv</title>
<ellipse fill="none" stroke="blue" cx="1124" cy="-666" rx="27" ry="18"/>
<text text-anchor="middle" x="1124" y="-660.95" font-family="Times,serif" font-size="14.00">kv</text>
</g>
<!-- qz&#45;&gt;kv -->
<g id="edge54" class="edge">
<title>qz&#45;&gt;kv</title>
<path fill="none" stroke="black" d="M1697.44,-733.9C1601.71,-722.73 1274.05,-684.51 1161.96,-671.43"/>
<polygon fill="black" stroke="black" points="1162.43,-667.96 1152.09,-670.28 1161.62,-674.91 1162.43,-667.96"/>
</g>
<!-- hq -->
<g id="node40" class="node">
<title>hq</title>
<ellipse fill="none" stroke="yellow" cx="1722" cy="-378" rx="27" ry="18"/>
<text text-anchor="middle" x="1722" y="-372.95" font-family="Times,serif" font-size="14.00">hq</text>
</g>
<!-- qz&#45;&gt;hq -->
<g id="edge55" class="edge">
<title>qz&#45;&gt;hq</title>
<path fill="none" stroke="black" d="M1709.7,-722.23C1687.69,-697.85 1648,-646.73 1648,-595 1648,-595 1648,-595 1648,-521 1648,-475 1678.92,-429.13 1700.79,-402.45"/>
<polygon fill="black" stroke="black" points="1703.31,-404.89 1707.1,-395 1697.97,-400.36 1703.31,-404.89"/>
</g>
<!-- qz&#45;&gt;qm -->
<g id="edge52" class="edge">
<title>qz&#45;&gt;qm</title>
<path fill="none" stroke="black" d="M1748.35,-729.67C1780.23,-719.94 1837.71,-701.88 1886,-684 1888.66,-683.02 1891.39,-681.97 1894.14,-680.89"/>
<polygon fill="black" stroke="black" points="1895.21,-684.23 1903.16,-677.23 1892.58,-677.74 1895.21,-684.23"/>
</g>
<!-- tk -->
<g id="node52" class="node">
<title>tk</title>
<ellipse fill="none" stroke="yellow" cx="1722" cy="-450" rx="27" ry="18"/>
<text text-anchor="middle" x="1722" y="-444.95" font-family="Times,serif" font-size="14.00">tk</text>
</g>
<!-- qz&#45;&gt;tk -->
<g id="edge56" class="edge">
<title>qz&#45;&gt;tk</title>
<path fill="none" stroke="black" d="M1719.87,-719.94C1711.11,-681.3 1692.45,-584.2 1705,-504 1706.32,-495.56 1708.75,-486.64 1711.38,-478.56"/>
<polygon fill="black" stroke="black" points="1714.62,-479.88 1714.61,-469.29 1708.01,-477.58 1714.62,-479.88"/>
</g>
<!-- dx -->
<g id="node17" class="node">
<title>dx</title>
<ellipse fill="none" stroke="yellow" cx="164" cy="-306" rx="27" ry="18"/>
<text text-anchor="middle" x="164" y="-300.95" font-family="Times,serif" font-size="14.00">dx</text>
</g>
<!-- dx&#45;&gt;dr -->
<g id="edge13" class="edge">
<title>dx&#45;&gt;dr</title>
<path fill="none" stroke="black" d="M143.19,-317.96C107.41,-338.49 38,-386.38 38,-449 38,-811 38,-811 38,-811 38,-856.15 51.6,-871.97 87,-900 131.2,-935 197.13,-946.9 238.56,-950.94"/>
<polygon fill="black" stroke="black" points="238.04,-954.41 248.31,-951.77 238.64,-947.43 238.04,-954.41"/>
</g>
<!-- gt -->
<g id="node18" class="node">
<title>gt</title>
<ellipse fill="none" stroke="yellow" cx="235" cy="-234" rx="27" ry="18"/>
<text text-anchor="middle" x="235" y="-228.95" font-family="Times,serif" font-size="14.00">gt</text>
</g>
<!-- dx&#45;&gt;gt -->
<g id="edge12" class="edge">
<title>dx&#45;&gt;gt</title>
<path fill="none" stroke="black" d="M178.71,-290.5C188.42,-280.92 201.34,-268.19 212.34,-257.34"/>
<polygon fill="black" stroke="black" points="214.57,-260.06 219.23,-250.55 209.65,-255.08 214.57,-260.06"/>
</g>
<!-- gt&#45;&gt;dr -->
<g id="edge104" class="edge">
<title>gt&#45;&gt;dr</title>
<path fill="none" stroke="black" d="M257.03,-244.68C296.69,-263.77 376,-310.3 376,-377 376,-811 376,-811 376,-811 376,-861.93 332.62,-907.66 303.29,-932.75"/>
<polygon fill="black" stroke="black" points="301.34,-929.82 295.87,-938.9 305.8,-935.22 301.34,-929.82"/>
</g>
<!-- nd -->
<g id="node55" class="node">
<title>nd</title>
<ellipse fill="none" stroke="yellow" cx="235" cy="-162" rx="27" ry="18"/>
<text text-anchor="middle" x="235" y="-156.95" font-family="Times,serif" font-size="14.00">nd</text>
</g>
<!-- gt&#45;&gt;nd -->
<g id="edge105" class="edge">
<title>gt&#45;&gt;nd</title>
<path fill="none" stroke="black" d="M235,-215.7C235,-208.41 235,-199.73 235,-191.54"/>
<polygon fill="black" stroke="black" points="238.5,-191.62 235,-181.62 231.5,-191.62 238.5,-191.62"/>
</g>
<!-- tz -->
<g id="node19" class="node">
<title>tz</title>
<ellipse fill="none" stroke="yellow" cx="807" cy="-306" rx="27" ry="18"/>
<text text-anchor="middle" x="807" y="-300.95" font-family="Times,serif" font-size="14.00">tz</text>
</g>
<!-- tz&#45;&gt;sv -->
<g id="edge14" class="edge">
<title>tz&#45;&gt;sv</title>
<path fill="none" stroke="black" d="M810.36,-323.97C815.31,-350.52 824,-403.56 824,-449 824,-667 824,-667 824,-667 824,-710.34 800.85,-756.12 784.05,-783.62"/>
<polygon fill="black" stroke="black" points="781.18,-781.62 778.8,-791.94 787.1,-785.35 781.18,-781.62"/>
</g>
<!-- ng -->
<g id="node20" class="node">
<title>ng</title>
<ellipse fill="none" stroke="yellow" cx="845" cy="-234" rx="27" ry="18"/>
<text text-anchor="middle" x="845" y="-228.95" font-family="Times,serif" font-size="14.00">ng</text>
</g>
<!-- tz&#45;&gt;ng -->
<g id="edge15" class="edge">
<title>tz&#45;&gt;ng</title>
<path fill="none" stroke="black" d="M815.81,-288.76C820.27,-280.55 825.8,-270.37 830.84,-261.09"/>
<polygon fill="black" stroke="black" points="833.82,-262.94 835.51,-252.48 827.67,-259.6 833.82,-262.94"/>
</g>
<!-- ng&#45;&gt;bc -->
<g id="edge106" class="edge">
<title>ng&#45;&gt;bc</title>
<path fill="none" stroke="black" d="M849.6,-216.05C851.65,-208.49 854.13,-199.37 856.44,-190.85"/>
<polygon fill="black" stroke="black" points="859.8,-191.82 859.05,-181.25 853.05,-189.98 859.8,-191.82"/>
</g>
<!-- ng&#45;&gt;sv -->
<g id="edge107" class="edge">
<title>ng&#45;&gt;sv</title>
<path fill="none" stroke="black" d="M848.36,-251.97C853.31,-278.52 862,-331.56 862,-377 862,-667 862,-667 862,-667 862,-717.05 820.73,-762.81 792.59,-788.2"/>
<polygon fill="black" stroke="black" points="790.36,-785.5 785.12,-794.71 794.96,-790.77 790.36,-785.5"/>
</g>
<!-- fr -->
<g id="node21" class="node">
<title>fr</title>
<ellipse fill="none" stroke="yellow" cx="655" cy="-594" rx="27" ry="18"/>
<text text-anchor="middle" x="655" y="-588.95" font-family="Times,serif" font-size="14.00">fr</text>
</g>
<!-- fr&#45;&gt;sv -->
<g id="edge17" class="edge">
<title>fr&#45;&gt;sv</title>
<path fill="none" stroke="black" d="M655.66,-612.01C657.63,-643.12 665.37,-710.21 696,-756 706.14,-771.17 722.13,-783.66 736.37,-792.7"/>
<polygon fill="black" stroke="black" points="734.18,-795.47 744.56,-797.61 737.79,-789.46 734.18,-795.47"/>
</g>
<!-- fr&#45;&gt;mx -->
<g id="edge16" class="edge">
<title>fr&#45;&gt;mx</title>
<path fill="none" stroke="black" d="M663.81,-576.76C668.27,-568.55 673.8,-558.37 678.84,-549.09"/>
<polygon fill="black" stroke="black" points="681.82,-550.94 683.51,-540.48 675.67,-547.6 681.82,-550.94"/>
</g>
<!-- bn -->
<g id="node59" class="node">
<title>bn</title>
<ellipse fill="none" stroke="yellow" cx="731" cy="-450" rx="27" ry="18"/>
<text text-anchor="middle" x="731" y="-444.95" font-family="Times,serif" font-size="14.00">bn</text>
</g>
<!-- mx&#45;&gt;bn -->
<g id="edge101" class="edge">
<title>mx&#45;&gt;bn</title>
<path fill="none" stroke="black" d="M701.81,-504.76C706.27,-496.55 711.8,-486.37 716.84,-477.09"/>
<polygon fill="black" stroke="black" points="719.82,-478.94 721.51,-468.48 713.67,-475.6 719.82,-478.94"/>
</g>
<!-- xp -->
<g id="node23" class="node">
<title>xp</title>
<ellipse fill="none" stroke="yellow" cx="1384" cy="-234" rx="27" ry="18"/>
<text text-anchor="middle" x="1384" y="-228.95" font-family="Times,serif" font-size="14.00">xp</text>
</g>
<!-- xp&#45;&gt;sk -->
<g id="edge19" class="edge">
<title>xp&#45;&gt;sk</title>
<path fill="none" stroke="black" d="M1361.22,-243.99C1319.26,-262.23 1234,-307.79 1234,-377 1234,-451 1234,-451 1234,-451 1234,-491.45 1237.52,-502.63 1253,-540 1268.72,-577.96 1296.14,-616.96 1314.67,-641.08"/>
<polygon fill="black" stroke="black" points="1311.68,-642.94 1320.6,-648.67 1317.2,-638.63 1311.68,-642.94"/>
</g>
<!-- xp&#45;&gt;br -->
<g id="edge18" class="edge">
<title>xp&#45;&gt;br</title>
<path fill="none" stroke="black" d="M1396.37,-217.81C1403.69,-208.82 1413.13,-197.23 1421.43,-187.03"/>
<polygon fill="black" stroke="black" points="1424.1,-189.3 1427.7,-179.33 1418.67,-184.88 1424.1,-189.3"/>
</g>
<!-- lz -->
<g id="node25" class="node">
<title>lz</title>
<ellipse fill="none" stroke="yellow" cx="1722" cy="-162" rx="27" ry="18"/>
<text text-anchor="middle" x="1722" y="-156.95" font-family="Times,serif" font-size="14.00">lz</text>
</g>
<!-- vk&#45;&gt;lz -->
<g id="edge20" class="edge">
<title>vk&#45;&gt;lz</title>
<path fill="none" stroke="black" d="M1766.63,-217.81C1759.31,-208.82 1749.87,-197.23 1741.57,-187.03"/>
<polygon fill="black" stroke="black" points="1744.33,-184.88 1735.3,-179.33 1738.9,-189.3 1744.33,-184.88"/>
</g>
<!-- lz&#45;&gt;qz -->
<g id="edge108" class="edge">
<title>lz&#45;&gt;qz</title>
<path fill="none" stroke="black" d="M1702.75,-175.07C1670.72,-196.8 1610,-245.81 1610,-305 1610,-595 1610,-595 1610,-595 1610,-649.38 1661.47,-694.8 1695.24,-718.74"/>
<polygon fill="black" stroke="black" points="1693.18,-721.57 1703.41,-724.33 1697.14,-715.8 1693.18,-721.57"/>
</g>
<!-- df -->
<g id="node34" class="node">
<title>df</title>
<ellipse fill="none" stroke="yellow" cx="1722" cy="-90" rx="27" ry="18"/>
<text text-anchor="middle" x="1722" y="-84.95" font-family="Times,serif" font-size="14.00">df</text>
</g>
<!-- lz&#45;&gt;df -->
<g id="edge109" class="edge">
<title>lz&#45;&gt;df</title>
<path fill="none" stroke="black" d="M1722,-143.7C1722,-136.41 1722,-127.73 1722,-119.54"/>
<polygon fill="black" stroke="black" points="1725.5,-119.62 1722,-109.62 1718.5,-119.62 1725.5,-119.62"/>
</g>
<!-- lm&#45;&gt;sv -->
<g id="edge35" class="edge">
<title>lm&#45;&gt;sv</title>
<path fill="none" stroke="black" d="M908.31,-35.68C919.09,-61.85 938,-114.38 938,-161 938,-667 938,-667 938,-667 938,-737.14 851.8,-779.26 801.81,-797.79"/>
<polygon fill="black" stroke="black" points="800.81,-794.43 792.56,-801.09 803.16,-801.03 800.81,-794.43"/>
</g>
<!-- jz&#45;&gt;ct -->
<g id="edge23" class="edge">
<title>jz&#45;&gt;ct</title>
<path fill="none" stroke="black" d="M202.4,-720.05C200.35,-712.49 197.87,-703.37 195.56,-694.85"/>
<polygon fill="black" stroke="black" points="198.95,-693.98 192.95,-685.25 192.2,-695.82 198.95,-693.98"/>
</g>
<!-- ct&#45;&gt;ks -->
<g id="edge97" class="edge">
<title>ct&#45;&gt;ks</title>
<path fill="none" stroke="black" d="M188,-647.7C188,-640.41 188,-631.73 188,-623.54"/>
<polygon fill="black" stroke="black" points="191.5,-623.62 188,-613.62 184.5,-623.62 191.5,-623.62"/>
</g>
<!-- qb -->
<g id="node30" class="node">
<title>qb</title>
<ellipse fill="none" stroke="blue" cx="1067" cy="-522" rx="27" ry="18"/>
<text text-anchor="middle" x="1067" y="-516.95" font-family="Times,serif" font-size="14.00">qb</text>
</g>
<!-- kv&#45;&gt;qb -->
<g id="edge24" class="edge">
<title>kv&#45;&gt;qb</title>
<path fill="none" stroke="black" d="M1117.24,-648.15C1107.55,-624.03 1089.62,-579.36 1078.01,-550.43"/>
<polygon fill="black" stroke="black" points="1081.29,-549.21 1074.32,-541.23 1074.79,-551.81 1081.29,-549.21"/>
</g>
<!-- rx -->
<g id="node42" class="node">
<title>rx</title>
<ellipse fill="none" stroke="red" cx="1067" cy="-450" rx="27" ry="18"/>
<text text-anchor="middle" x="1067" y="-444.95" font-family="Times,serif" font-size="14.00">rx</text>
</g>
<!-- qb&#45;&gt;rx -->
<g id="edge74" class="edge">
<title>qb&#45;&gt;rx</title>
<path fill="none" stroke="black" d="M1067,-503.7C1067,-496.41 1067,-487.73 1067,-479.54"/>
<polygon fill="black" stroke="black" points="1070.5,-479.62 1067,-469.62 1063.5,-479.62 1070.5,-479.62"/>
</g>
<!-- tj -->
<g id="node31" class="node">
<title>tj</title>
<ellipse fill="none" stroke="yellow" cx="164" cy="-378" rx="27" ry="18"/>
<text text-anchor="middle" x="164" y="-372.95" font-family="Times,serif" font-size="14.00">tj</text>
</g>
<!-- tj&#45;&gt;dr -->
<g id="edge25" class="edge">
<title>tj&#45;&gt;dr</title>
<path fill="none" stroke="black" d="M147.86,-392.94C122.45,-416.54 76,-467.05 76,-521 76,-811 76,-811 76,-811 76,-857.27 94.19,-870.7 130,-900 161.88,-926.09 207.66,-939.87 239.64,-946.77"/>
<polygon fill="black" stroke="black" points="238.76,-950.17 249.26,-948.72 240.15,-943.31 238.76,-950.17"/>
</g>
<!-- tj&#45;&gt;dx -->
<g id="edge26" class="edge">
<title>tj&#45;&gt;dx</title>
<path fill="none" stroke="black" d="M164,-359.7C164,-352.41 164,-343.73 164,-335.54"/>
<polygon fill="black" stroke="black" points="167.5,-335.62 164,-325.62 160.5,-335.62 167.5,-335.62"/>
</g>
<!-- nt -->
<g id="node32" class="node">
<title>nt</title>
<ellipse fill="none" stroke="yellow" cx="1779" cy="-594" rx="27" ry="18"/>
<text text-anchor="middle" x="1779" y="-588.95" font-family="Times,serif" font-size="14.00">nt</text>
</g>
<!-- nt&#45;&gt;qz -->
<g id="edge27" class="edge">
<title>nt&#45;&gt;qz</title>
<path fill="none" stroke="black" d="M1772.48,-611.82C1763.14,-635.94 1745.84,-680.6 1734.63,-709.54"/>
<polygon fill="black" stroke="black" points="1731.42,-708.15 1731.07,-718.74 1737.95,-710.68 1731.42,-708.15"/>
</g>
<!-- px -->
<g id="node33" class="node">
<title>px</title>
<ellipse fill="none" stroke="yellow" cx="1741" cy="-522" rx="27" ry="18"/>
<text text-anchor="middle" x="1741" y="-516.95" font-family="Times,serif" font-size="14.00">px</text>
</g>
<!-- nt&#45;&gt;px -->
<g id="edge28" class="edge">
<title>nt&#45;&gt;px</title>
<path fill="none" stroke="black" d="M1770.19,-576.76C1765.73,-568.55 1760.2,-558.37 1755.16,-549.09"/>
<polygon fill="black" stroke="black" points="1758.33,-547.6 1750.49,-540.48 1752.18,-550.94 1758.33,-547.6"/>
</g>
<!-- px&#45;&gt;qz -->
<g id="edge83" class="edge">
<title>px&#45;&gt;qz</title>
<path fill="none" stroke="black" d="M1739.63,-540.23C1736.71,-577.01 1729.84,-663.5 1726.26,-708.57"/>
<polygon fill="black" stroke="black" points="1722.79,-708.09 1725.48,-718.34 1729.76,-708.65 1722.79,-708.09"/>
</g>
<!-- px&#45;&gt;tk -->
<g id="edge84" class="edge">
<title>px&#45;&gt;tk</title>
<path fill="none" stroke="black" d="M1736.4,-504.05C1734.35,-496.49 1731.87,-487.37 1729.56,-478.85"/>
<polygon fill="black" stroke="black" points="1732.95,-477.98 1726.95,-469.25 1726.2,-479.82 1732.95,-477.98"/>
</g>
<!-- df&#45;&gt;qz -->
<g id="edge29" class="edge">
<title>df&#45;&gt;qz</title>
<path fill="none" stroke="black" d="M1699.22,-99.99C1657.26,-118.23 1572,-163.79 1572,-233 1572,-595 1572,-595 1572,-595 1572,-640.37 1589.4,-652.45 1622,-684 1641.17,-702.56 1668.14,-716.19 1689.53,-724.97"/>
<polygon fill="black" stroke="black" points="1688.14,-728.19 1698.73,-728.58 1690.69,-721.67 1688.14,-728.19"/>
</g>
<!-- jd -->
<g id="node35" class="node">
<title>jd</title>
<ellipse fill="none" stroke="yellow" cx="1852" cy="-18" rx="27" ry="18"/>
<text text-anchor="middle" x="1852" y="-12.95" font-family="Times,serif" font-size="14.00">jd</text>
</g>
<!-- df&#45;&gt;jd -->
<g id="edge30" class="edge">
<title>df&#45;&gt;jd</title>
<path fill="none" stroke="black" d="M1742.6,-77.91C1763.8,-66.49 1797.08,-48.57 1821.37,-35.49"/>
<polygon fill="black" stroke="black" points="1823.02,-38.58 1830.16,-30.76 1819.7,-32.42 1823.02,-38.58"/>
</g>
<!-- jd&#45;&gt;qz -->
<g id="edge65" class="edge">
<title>jd&#45;&gt;qz</title>
<path fill="none" stroke="black" d="M1873.18,-29.63C1910.01,-49.79 1982,-97.33 1982,-161 1982,-595 1982,-595 1982,-595 1982,-635.45 1991.49,-655.29 1963,-684 1935.22,-712 1822.07,-727.26 1761.96,-733.53"/>
<polygon fill="black" stroke="black" points="1761.79,-730.03 1752.19,-734.52 1762.49,-737 1761.79,-730.03"/>
</g>
<!-- nf&#45;&gt;sk -->
<g id="edge31" class="edge">
<title>nf&#45;&gt;sk</title>
<path fill="none" stroke="black" d="M1512.33,-35.85C1520.2,-62.25 1534,-115.08 1534,-161 1534,-523 1534,-523 1534,-523 1534,-602.25 1428.31,-641.32 1370.6,-656.74"/>
<polygon fill="black" stroke="black" points="1370.03,-653.28 1361.2,-659.15 1371.76,-660.06 1370.03,-653.28"/>
</g>
<!-- fc -->
<g id="node38" class="node">
<title>fc</title>
<ellipse fill="none" stroke="yellow" cx="245" cy="-522" rx="27" ry="18"/>
<text text-anchor="middle" x="245" y="-516.95" font-family="Times,serif" font-size="14.00">fc</text>
</g>
<!-- ks&#45;&gt;fc -->
<g id="edge32" class="edge">
<title>ks&#45;&gt;fc</title>
<path fill="none" stroke="black" d="M200.37,-577.81C207.69,-568.82 217.13,-557.23 225.43,-547.03"/>
<polygon fill="black" stroke="black" points="228.1,-549.3 231.7,-539.33 222.67,-544.88 228.1,-549.3"/>
</g>
<!-- fc&#45;&gt;dr -->
<g id="edge102" class="edge">
<title>fc&#45;&gt;dr</title>
<path fill="none" stroke="black" d="M255.6,-538.84C271.59,-564.28 300,-616.36 300,-665 300,-811 300,-811 300,-811 300,-850.99 291,-896.51 284.26,-924.99"/>
<polygon fill="black" stroke="black" points="280.88,-924.08 281.9,-934.62 287.68,-925.74 280.88,-924.08"/>
</g>
<!-- fc&#45;&gt;tq -->
<g id="edge103" class="edge">
<title>fc&#45;&gt;tq</title>
<path fill="none" stroke="black" d="M245,-503.7C245,-496.41 245,-487.73 245,-479.54"/>
<polygon fill="black" stroke="black" points="248.5,-479.62 245,-469.62 241.5,-479.62 248.5,-479.62"/>
</g>
<!-- dz&#45;&gt;fr -->
<g id="edge33" class="edge">
<title>dz&#45;&gt;fr</title>
<path fill="none" stroke="black" d="M625.81,-648.76C630.27,-640.55 635.8,-630.37 640.84,-621.09"/>
<polygon fill="black" stroke="black" points="643.82,-622.94 645.51,-612.48 637.67,-619.6 643.82,-622.94"/>
</g>
<!-- bz -->
<g id="node41" class="node">
<title>bz</title>
<ellipse fill="none" stroke="yellow" cx="1779" cy="-306" rx="27" ry="18"/>
<text text-anchor="middle" x="1779" y="-300.95" font-family="Times,serif" font-size="14.00">bz</text>
</g>
<!-- hq&#45;&gt;bz -->
<g id="edge34" class="edge">
<title>hq&#45;&gt;bz</title>
<path fill="none" stroke="black" d="M1734.37,-361.81C1741.69,-352.82 1751.13,-341.23 1759.43,-331.03"/>
<polygon fill="black" stroke="black" points="1762.1,-333.3 1765.7,-323.33 1756.67,-328.88 1762.1,-333.3"/>
</g>
<!-- bz&#45;&gt;qz -->
<g id="edge76" class="edge">
<title>bz&#45;&gt;qz</title>
<path fill="none" stroke="black" d="M1789.6,-322.84C1805.59,-348.28 1834,-400.36 1834,-449 1834,-595 1834,-595 1834,-595 1834,-648.64 1784.33,-694.31 1751.75,-718.5"/>
<polygon fill="black" stroke="black" points="1749.97,-715.47 1743.89,-724.14 1754.05,-721.15 1749.97,-715.47"/>
</g>
<!-- bz&#45;&gt;vk -->
<g id="edge75" class="edge">
<title>bz&#45;&gt;vk</title>
<path fill="none" stroke="black" d="M1779,-287.7C1779,-280.41 1779,-271.73 1779,-263.54"/>
<polygon fill="black" stroke="black" points="1782.5,-263.62 1779,-253.62 1775.5,-263.62 1782.5,-263.62"/>
</g>
<!-- xk&#45;&gt;sv -->
<g id="edge85" class="edge">
<title>xk&#45;&gt;sv</title>
<path fill="none" stroke="black" d="M761.12,-864.05C760.33,-856.57 760.08,-847.58 760.37,-839.14"/>
<polygon fill="black" stroke="black" points="763.85,-839.51 761.04,-829.3 756.87,-839.04 763.85,-839.51"/>
</g>
<!-- xk&#45;&gt;zv -->
<g id="edge86" class="edge">
<title>xk&#45;&gt;zv</title>
<path fill="none" stroke="black" d="M749.65,-867.9C716.63,-842.96 644.58,-788.53 605.49,-759.01"/>
<polygon fill="black" stroke="black" points="607.6,-756.22 597.52,-752.99 603.39,-761.81 607.6,-756.22"/>
</g>
<!-- rz&#45;&gt;qb -->
<g id="edge92" class="edge">
<title>rz&#45;&gt;qb</title>
<path fill="none" stroke="black" d="M995.56,-719.99C1000.46,-690 1012.61,-626.14 1034,-576 1038.1,-566.4 1043.78,-556.52 1049.28,-547.93"/>
<polygon fill="black" stroke="black" points="1052.07,-550.06 1054.7,-539.79 1046.24,-546.17 1052.07,-550.06"/>
</g>
<!-- zv&#45;&gt;dz -->
<g id="edge89" class="edge">
<title>zv&#45;&gt;dz</title>
<path fill="none" stroke="black" d="M587.81,-720.76C592.27,-712.55 597.8,-702.37 602.84,-693.09"/>
<polygon fill="black" stroke="black" points="605.82,-694.94 607.51,-684.48 599.67,-691.6 605.82,-694.94"/>
</g>
<!-- broadcaster -->
<g id="node46" class="node">
<title>broadcaster</title>
<ellipse fill="none" stroke="green" cx="1034" cy="-954" rx="53.4" ry="18"/>
<text text-anchor="middle" x="1034" y="-948.95" font-family="Times,serif" font-size="14.00">broadcaster</text>
</g>
<!-- broadcaster&#45;&gt;rj -->
<g id="edge46" class="edge">
<title>broadcaster&#45;&gt;rj</title>
<path fill="none" stroke="black" d="M1084.74,-947.85C1216.98,-934.44 1570.01,-898.62 1686.28,-886.83"/>
<polygon fill="black" stroke="black" points="1686.3,-890.34 1695.9,-885.85 1685.6,-883.38 1686.3,-890.34"/>
</g>
<!-- broadcaster&#45;&gt;xk -->
<g id="edge45" class="edge">
<title>broadcaster&#45;&gt;xk</title>
<path fill="none" stroke="black" d="M992.87,-942.22C940.86,-928.58 852.18,-905.33 802.83,-892.39"/>
<polygon fill="black" stroke="black" points="803.78,-889.03 793.22,-889.88 802.01,-895.8 803.78,-889.03"/>
</g>
<!-- broadcaster&#45;&gt;cn -->
<g id="edge44" class="edge">
<title>broadcaster&#45;&gt;cn</title>
<path fill="none" stroke="black" d="M984.14,-947.21C866.5,-933.56 573.66,-899.56 468.96,-887.41"/>
<polygon fill="black" stroke="black" points="469.56,-883.95 459.22,-886.28 468.75,-890.91 469.56,-883.95"/>
</g>
<!-- broadcaster&#45;&gt;gf -->
<g id="edge47" class="edge">
<title>broadcaster&#45;&gt;gf</title>
<path fill="none" stroke="black" d="M1075.29,-942.22C1127.49,-928.58 1216.5,-905.33 1266.03,-892.39"/>
<polygon fill="black" stroke="black" points="1266.89,-895.79 1275.68,-889.87 1265.12,-889.01 1266.89,-895.79"/>
</g>
<!-- cn&#45;&gt;dr -->
<g id="edge63" class="edge">
<title>cn&#45;&gt;dr</title>
<path fill="none" stroke="black" d="M410.98,-894.44C385.47,-906.97 341.43,-927.02 310.74,-940.1"/>
<polygon fill="black" stroke="black" points="309.75,-936.72 301.89,-943.83 312.47,-943.18 309.75,-936.72"/>
</g>
<!-- mq -->
<g id="node54" class="node">
<title>mq</title>
<ellipse fill="none" stroke="yellow" cx="245" cy="-810" rx="27" ry="18"/>
<text text-anchor="middle" x="245" y="-804.95" font-family="Times,serif" font-size="14.00">mq</text>
</g>
<!-- cn&#45;&gt;mq -->
<g id="edge64" class="edge">
<title>cn&#45;&gt;mq</title>
<path fill="none" stroke="black" d="M407.82,-872.28C375.29,-860.03 315.91,-837.68 278.55,-823.63"/>
<polygon fill="black" stroke="black" points="280.19,-820.5 269.6,-820.26 277.72,-827.05 280.19,-820.5"/>
</g>
<!-- gf&#45;&gt;sk -->
<g id="edge96" class="edge">
<title>gf&#45;&gt;sk</title>
<path fill="none" stroke="black" d="M1300.69,-863.85C1302.68,-826.98 1315.42,-739.86 1325.1,-694.91"/>
<polygon fill="black" stroke="black" points="1328.45,-695.94 1327.27,-685.41 1321.63,-694.38 1328.45,-695.94"/>
</g>
<!-- rl -->
<g id="node50" class="node">
<title>rl</title>
<ellipse fill="none" stroke="yellow" cx="1270" cy="-810" rx="27" ry="18"/>
<text text-anchor="middle" x="1270" y="-804.95" font-family="Times,serif" font-size="14.00">rl</text>
</g>
<!-- gf&#45;&gt;rl -->
<g id="edge95" class="edge">
<title>gf&#45;&gt;rl</title>
<path fill="none" stroke="black" d="M1294.42,-864.41C1290.79,-856.48 1286.36,-846.78 1282.27,-837.84"/>
<polygon fill="black" stroke="black" points="1285.5,-836.49 1278.16,-828.85 1279.13,-839.4 1285.5,-836.49"/>
</g>
<!-- tq&#45;&gt;tj -->
<g id="edge48" class="edge">
<title>tq&#45;&gt;tj</title>
<path fill="none" stroke="black" d="M229,-435.17C217.46,-425.2 201.67,-411.56 188.55,-400.21"/>
<polygon fill="black" stroke="black" points="190.97,-397.68 181.11,-393.79 186.39,-402.98 190.97,-397.68"/>
</g>
<!-- rl&#45;&gt;bv -->
<g id="edge49" class="edge">
<title>rl&#45;&gt;bv</title>
<path fill="none" stroke="black" d="M1261.19,-792.76C1256.73,-784.55 1251.2,-774.37 1246.16,-765.09"/>
<polygon fill="black" stroke="black" points="1249.33,-763.6 1241.49,-756.48 1243.18,-766.94 1249.33,-763.6"/>
</g>
<!-- rl&#45;&gt;sk -->
<g id="edge50" class="edge">
<title>rl&#45;&gt;sk</title>
<path fill="none" stroke="black" d="M1277.47,-792.43C1288.4,-768.17 1308.89,-722.71 1321.97,-693.7"/>
<polygon fill="black" stroke="black" points="1325.04,-695.4 1325.96,-684.84 1318.66,-692.52 1325.04,-695.4"/>
</g>
<!-- qm&#45;&gt;nt -->
<g id="edge71" class="edge">
<title>qm&#45;&gt;nt</title>
<path fill="none" stroke="black" d="M1905.48,-654.82C1880.6,-643.05 1839.41,-623.57 1810.82,-610.05"/>
<polygon fill="black" stroke="black" points="1812.45,-606.95 1801.91,-605.84 1809.46,-613.28 1812.45,-606.95"/>
</g>
<!-- tk&#45;&gt;hq -->
<g id="edge100" class="edge">
<title>tk&#45;&gt;hq</title>
<path fill="none" stroke="black" d="M1722,-431.7C1722,-424.41 1722,-415.73 1722,-407.54"/>
<polygon fill="black" stroke="black" points="1725.5,-407.62 1722,-397.62 1718.5,-407.62 1725.5,-407.62"/>
</g>
<!-- mr&#45;&gt;qb -->
<g id="edge70" class="edge">
<title>mr&#45;&gt;qb</title>
<path fill="none" stroke="black" d="M1005.35,-793.86C1013.47,-783.8 1023.34,-769.93 1029,-756 1057.31,-686.25 1064.56,-596.66 1066.39,-551.59"/>
<polygon fill="black" stroke="black" points="1069.88,-551.99 1066.72,-541.88 1062.89,-551.76 1069.88,-551.99"/>
</g>
<!-- mq&#45;&gt;dr -->
<g id="edge94" class="edge">
<title>mq&#45;&gt;dr</title>
<path fill="none" stroke="black" d="M248.87,-828.19C254.29,-852.21 264.18,-896.11 270.67,-924.91"/>
<polygon fill="black" stroke="black" points="267.19,-925.41 272.81,-934.39 274.02,-923.87 267.19,-925.41"/>
</g>
<!-- mq&#45;&gt;jz -->
<g id="edge93" class="edge">
<title>mq&#45;&gt;jz</title>
<path fill="none" stroke="black" d="M236.19,-792.76C231.73,-784.55 226.2,-774.37 221.16,-765.09"/>
<polygon fill="black" stroke="black" points="224.33,-763.6 216.49,-756.48 218.18,-766.94 224.33,-763.6"/>
</g>
<!-- nd&#45;&gt;nk -->
<g id="edge69" class="edge">
<title>nd&#45;&gt;nk</title>
<path fill="none" stroke="black" d="M208.5,-166.37C147.04,-175.8 0,-208.47 0,-305 0,-883 0,-883 0,-883 0,-946.94 72.76,-990.69 116.93,-1011.37"/>
<polygon fill="black" stroke="black" points="115.28,-1014.46 125.84,-1015.39 118.16,-1008.08 115.28,-1014.46"/>
</g>
<!-- nd&#45;&gt;dr -->
<g id="edge68" class="edge">
<title>nd&#45;&gt;dr</title>
<path fill="none" stroke="black" d="M261.86,-165.55C326.61,-173.34 486,-202.86 486,-305 486,-811 486,-811 486,-811 486,-851.45 494.7,-870.53 467,-900 427.87,-941.62 359.06,-951.5 315.86,-953.34"/>
<polygon fill="black" stroke="black" points="315.82,-949.84 305.92,-953.62 316.01,-956.84 315.82,-949.84"/>
</g>
<!-- cf -->
<g id="node56" class="node">
<title>cf</title>
<ellipse fill="none" stroke="yellow" cx="769" cy="-378" rx="27" ry="18"/>
<text text-anchor="middle" x="769" y="-372.95" font-family="Times,serif" font-size="14.00">cf</text>
</g>
<!-- cf&#45;&gt;sv -->
<g id="edge72" class="edge">
<title>cf&#45;&gt;sv</title>
<path fill="none" stroke="black" d="M772.36,-395.97C777.31,-422.52 786,-475.56 786,-521 786,-667 786,-667 786,-667 786,-706.83 778.57,-752.39 773,-780.93"/>
<polygon fill="black" stroke="black" points="769.6,-780.07 771.05,-790.57 776.46,-781.46 769.6,-780.07"/>
</g>
<!-- cf&#45;&gt;tz -->
<g id="edge73" class="edge">
<title>cf&#45;&gt;tz</title>
<path fill="none" stroke="black" d="M777.81,-360.76C782.27,-352.55 787.8,-342.37 792.84,-333.09"/>
<polygon fill="black" stroke="black" points="795.82,-334.94 797.51,-324.48 789.67,-331.6 795.82,-334.94"/>
</g>
<!-- qh&#45;&gt;xp -->
<g id="edge90" class="edge">
<title>qh&#45;&gt;xp</title>
<path fill="none" stroke="black" d="M1384,-287.7C1384,-280.41 1384,-271.73 1384,-263.54"/>
<polygon fill="black" stroke="black" points="1387.5,-263.62 1384,-253.62 1380.5,-263.62 1387.5,-263.62"/>
</g>
<!-- jg&#45;&gt;qb -->
<g id="edge91" class="edge">
<title>jg&#45;&gt;qb</title>
<path fill="none" stroke="black" d="M1191.46,-582.67C1166.98,-570.94 1126.8,-551.67 1098.74,-538.22"/>
<polygon fill="black" stroke="black" points="1100.53,-535.19 1090,-534.03 1097.5,-541.5 1100.53,-535.19"/>
</g>
<!-- bn&#45;&gt;sv -->
<g id="edge98" class="edge">
<title>bn&#45;&gt;sv</title>
<path fill="none" stroke="black" d="M734.36,-467.97C739.31,-494.52 748,-547.56 748,-593 748,-667 748,-667 748,-667 748,-706.83 755.43,-752.39 761,-780.93"/>
<polygon fill="black" stroke="black" points="757.54,-781.46 762.95,-790.57 764.4,-780.07 757.54,-781.46"/>
</g>
<!-- bn&#45;&gt;cf -->
<g id="edge99" class="edge">
<title>bn&#45;&gt;cf</title>
<path fill="none" stroke="black" d="M739.81,-432.76C744.27,-424.55 749.8,-414.37 754.84,-405.09"/>
<polygon fill="black" stroke="black" points="757.82,-406.94 759.51,-396.48 751.67,-403.6 757.82,-406.94"/>
</g>
</g>
</svg>
